<mxfile host="65bd71144e">
    <diagram id="Q9Uin4Dus2TSMiDySBdu" name="Page-1">
        <mxGraphModel dx="1871" dy="590" grid="0" gridSize="10" guides="1" tooltips="1" connect="1" arrows="1" fold="1" page="1" pageScale="1" pageWidth="827" pageHeight="1169" background="#F4F1DE" math="0" shadow="0">
            <root>
                <mxCell id="0"/>
                <mxCell id="1" parent="0"/>
                <mxCell id="2" value="RestaurateurÂ " style="swimlane;fontStyle=1;childLayout=stackLayout;horizontal=1;startSize=26;horizontalStack=0;resizeParent=1;resizeParentMax=0;resizeLast=0;collapsible=1;marginBottom=0;fillColor=#F2CC8F;strokeColor=#E07A5F;fontColor=#393C56;" parent="1" vertex="1">
                    <mxGeometry x="118" y="130" width="140" height="150" as="geometry"/>
                </mxCell>
                <mxCell id="3" value="id_restaurateur" style="text;strokeColor=none;fillColor=none;align=left;verticalAlign=top;spacingLeft=4;spacingRight=4;overflow=hidden;rotatable=0;points=[[0,0.5],[1,0.5]];portConstraint=eastwest;fontStyle=4;fontColor=#393C56;" parent="2" vertex="1">
                    <mxGeometry y="26" width="140" height="26" as="geometry"/>
                </mxCell>
                <mxCell id="4" value="nom&#10;&#10;prenom&#10;&#10;# id_restaurant" style="text;strokeColor=none;fillColor=none;align=left;verticalAlign=top;spacingLeft=4;spacingRight=4;overflow=hidden;rotatable=0;points=[[0,0.5],[1,0.5]];portConstraint=eastwest;fontColor=#393C56;" parent="2" vertex="1">
                    <mxGeometry y="52" width="140" height="98" as="geometry"/>
                </mxCell>
                <mxCell id="6" value="Client" style="swimlane;fontStyle=1;childLayout=stackLayout;horizontal=1;startSize=26;horizontalStack=0;resizeParent=1;resizeParentMax=0;resizeLast=0;collapsible=1;marginBottom=0;fillColor=#F2CC8F;strokeColor=#E07A5F;fontColor=#393C56;" parent="1" vertex="1">
                    <mxGeometry x="558" y="167" width="140" height="190" as="geometry"/>
                </mxCell>
                <mxCell id="7" value="id_client" style="text;strokeColor=none;fillColor=none;align=left;verticalAlign=top;spacingLeft=4;spacingRight=4;overflow=hidden;rotatable=0;points=[[0,0.5],[1,0.5]];portConstraint=eastwest;fontStyle=4;fontColor=#393C56;" parent="6" vertex="1">
                    <mxGeometry y="26" width="140" height="26" as="geometry"/>
                </mxCell>
                <mxCell id="8" value="nom&#10;" style="text;strokeColor=none;fillColor=none;align=left;verticalAlign=top;spacingLeft=4;spacingRight=4;overflow=hidden;rotatable=0;points=[[0,0.5],[1,0.5]];portConstraint=eastwest;fontColor=#393C56;" parent="6" vertex="1">
                    <mxGeometry y="52" width="140" height="26" as="geometry"/>
                </mxCell>
                <mxCell id="9" value="prenom&#10;&#10;adresse&#10;&#10;mot de passe&#10;&#10;numero_tel" style="text;strokeColor=none;fillColor=none;align=left;verticalAlign=top;spacingLeft=4;spacingRight=4;overflow=hidden;rotatable=0;points=[[0,0.5],[1,0.5]];portConstraint=eastwest;fontColor=#393C56;" parent="6" vertex="1">
                    <mxGeometry y="78" width="140" height="112" as="geometry"/>
                </mxCell>
                <mxCell id="27" value="Commande" style="swimlane;fontStyle=1;childLayout=stackLayout;horizontal=1;startSize=26;horizontalStack=0;resizeParent=1;resizeParentMax=0;resizeLast=0;collapsible=1;marginBottom=0;fillColor=#F2CC8F;strokeColor=#E07A5F;fontColor=#393C56;" parent="1" vertex="1">
                    <mxGeometry x="558" y="485" width="140" height="111" as="geometry"/>
                </mxCell>
                <mxCell id="114" value="id_commande" style="text;strokeColor=none;fillColor=none;align=left;verticalAlign=top;spacingLeft=4;spacingRight=4;overflow=hidden;rotatable=0;points=[[0,0.5],[1,0.5]];portConstraint=eastwest;fontStyle=4;fontColor=#393C56;" vertex="1" parent="27">
                    <mxGeometry y="26" width="140" height="26" as="geometry"/>
                </mxCell>
                <mxCell id="28" value="prix_total" style="text;strokeColor=none;fillColor=none;align=left;verticalAlign=top;spacingLeft=4;spacingRight=4;overflow=hidden;rotatable=0;points=[[0,0.5],[1,0.5]];portConstraint=eastwest;fontStyle=0;fontColor=#393C56;" parent="27" vertex="1">
                    <mxGeometry y="52" width="140" height="59" as="geometry"/>
                </mxCell>
                <mxCell id="63" value="Menu" style="swimlane;fontStyle=1;childLayout=stackLayout;horizontal=1;startSize=26;horizontalStack=0;resizeParent=1;resizeParentMax=0;resizeLast=0;collapsible=1;marginBottom=0;fillColor=#F2CC8F;strokeColor=#E07A5F;fontColor=#393C56;" parent="1" vertex="1">
                    <mxGeometry x="118" y="518" width="140" height="86" as="geometry"/>
                </mxCell>
                <mxCell id="64" value="id_menu&#10;" style="text;strokeColor=none;fillColor=none;align=left;verticalAlign=top;spacingLeft=4;spacingRight=4;overflow=hidden;rotatable=0;points=[[0,0.5],[1,0.5]];portConstraint=eastwest;fontStyle=4;fontColor=#393C56;" parent="63" vertex="1">
                    <mxGeometry y="26" width="140" height="34" as="geometry"/>
                </mxCell>
                <mxCell id="65" value="prix" style="text;strokeColor=none;fillColor=none;align=left;verticalAlign=top;spacingLeft=4;spacingRight=4;overflow=hidden;rotatable=0;points=[[0,0.5],[1,0.5]];portConstraint=eastwest;fontColor=#393C56;" parent="63" vertex="1">
                    <mxGeometry y="60" width="140" height="26" as="geometry"/>
                </mxCell>
                <mxCell id="67" value="Article" style="swimlane;fontStyle=1;childLayout=stackLayout;horizontal=1;startSize=26;horizontalStack=0;resizeParent=1;resizeParentMax=0;resizeLast=0;collapsible=1;marginBottom=0;fillColor=#F2CC8F;strokeColor=#E07A5F;fontColor=#393C56;" parent="1" vertex="1">
                    <mxGeometry x="120" y="707" width="140" height="116" as="geometry"/>
                </mxCell>
                <mxCell id="117" value="id_article" style="text;strokeColor=none;fillColor=none;align=left;verticalAlign=top;spacingLeft=4;spacingRight=4;overflow=hidden;rotatable=0;points=[[0,0.5],[1,0.5]];portConstraint=eastwest;fontStyle=4;fontColor=#393C56;" vertex="1" parent="67">
                    <mxGeometry y="26" width="140" height="26" as="geometry"/>
                </mxCell>
                <mxCell id="68" value="type_article" style="text;strokeColor=none;fillColor=none;align=left;verticalAlign=top;spacingLeft=4;spacingRight=4;overflow=hidden;rotatable=0;points=[[0,0.5],[1,0.5]];portConstraint=eastwest;fontStyle=0;fontColor=#393C56;" parent="67" vertex="1">
                    <mxGeometry y="52" width="140" height="64" as="geometry"/>
                </mxCell>
                <mxCell id="81" value="" style="endArrow=none;html=1;exitX=0;exitY=1;exitDx=0;exitDy=0;strokeColor=#E07A5F;fontColor=#393C56;entryX=0;entryY=0;entryDx=0;entryDy=0;labelBackgroundColor=#F4F1DE;" edge="1" parent="1" source="84" target="82">
                    <mxGeometry width="50" height="50" relative="1" as="geometry">
                        <mxPoint x="170" y="330" as="sourcePoint"/>
                        <mxPoint x="200" y="270" as="targetPoint"/>
                        <Array as="points">
                            <mxPoint x="200" y="320"/>
                        </Array>
                    </mxGeometry>
                </mxCell>
                <mxCell id="82" value="1" style="text;html=1;strokeColor=none;fillColor=none;align=center;verticalAlign=middle;whiteSpace=wrap;rounded=0;fontColor=#393C56;" vertex="1" parent="1">
                    <mxGeometry x="200" y="280" width="40" height="20" as="geometry"/>
                </mxCell>
                <mxCell id="84" value="0..1" style="text;html=1;strokeColor=none;fillColor=none;align=center;verticalAlign=middle;whiteSpace=wrap;rounded=0;fontColor=#393C56;" vertex="1" parent="1">
                    <mxGeometry x="200" y="357" width="40" height="20" as="geometry"/>
                </mxCell>
                <mxCell id="85" value="1" style="text;html=1;strokeColor=none;fillColor=none;align=center;verticalAlign=middle;whiteSpace=wrap;rounded=0;fontColor=#393C56;" vertex="1" parent="1">
                    <mxGeometry x="640" y="357" width="40" height="20" as="geometry"/>
                </mxCell>
                <mxCell id="87" value="0..*" style="text;html=1;strokeColor=none;fillColor=none;align=center;verticalAlign=middle;whiteSpace=wrap;rounded=0;fontColor=#393C56;" vertex="1" parent="1">
                    <mxGeometry x="640" y="465" width="40" height="20" as="geometry"/>
                </mxCell>
                <mxCell id="95" value="" style="endArrow=none;html=1;entryX=-0.017;entryY=0.361;entryDx=0;entryDy=0;strokeColor=#E07A5F;fontColor=#393C56;entryPerimeter=0;labelBackgroundColor=#F4F1DE;" edge="1" parent="1" target="28">
                    <mxGeometry width="50" height="50" relative="1" as="geometry">
                        <mxPoint x="260" y="558" as="sourcePoint"/>
                        <mxPoint x="330" y="546" as="targetPoint"/>
                        <Array as="points"/>
                    </mxGeometry>
                </mxCell>
                <mxCell id="97" value="1..*" style="text;html=1;strokeColor=none;fillColor=none;align=center;verticalAlign=middle;whiteSpace=wrap;rounded=0;fontColor=#393C56;" vertex="1" parent="1">
                    <mxGeometry x="518" y="541" width="40" height="20" as="geometry"/>
                </mxCell>
                <mxCell id="98" value="" style="endArrow=none;html=1;strokeColor=#E07A5F;fontColor=#393C56;labelBackgroundColor=#F4F1DE;" edge="1" parent="1">
                    <mxGeometry width="50" height="50" relative="1" as="geometry">
                        <mxPoint x="180" y="705" as="sourcePoint"/>
                        <mxPoint x="180" y="604" as="targetPoint"/>
                    </mxGeometry>
                </mxCell>
                <mxCell id="102" value="1..*" style="text;html=1;strokeColor=none;fillColor=none;align=center;verticalAlign=middle;whiteSpace=wrap;rounded=0;fontColor=#393C56;" vertex="1" parent="1">
                    <mxGeometry x="170" y="603" width="40" height="20" as="geometry"/>
                </mxCell>
                <mxCell id="104" value="3" style="text;html=1;strokeColor=none;fillColor=none;align=center;verticalAlign=middle;whiteSpace=wrap;rounded=0;fontColor=#393C56;" vertex="1" parent="1">
                    <mxGeometry x="170" y="687" width="40" height="20" as="geometry"/>
                </mxCell>
                <mxCell id="110" value="1..*" style="text;html=1;strokeColor=none;fillColor=none;align=center;verticalAlign=middle;whiteSpace=wrap;rounded=0;fontColor=#393C56;" vertex="1" parent="1">
                    <mxGeometry x="258" y="561" width="40" height="20" as="geometry"/>
                </mxCell>
                <mxCell id="111" value="1" style="text;html=1;strokeColor=none;fillColor=none;align=center;verticalAlign=middle;whiteSpace=wrap;rounded=0;fontColor=#393C56;" vertex="1" parent="1">
                    <mxGeometry x="200" y="409" width="40" height="20" as="geometry"/>
                </mxCell>
                <mxCell id="122" value="Table_menus_commande" style="swimlane;fontStyle=1;childLayout=stackLayout;horizontal=1;startSize=26;horizontalStack=0;resizeParent=1;resizeParentMax=0;resizeLast=0;collapsible=1;marginBottom=0;rounded=0;sketch=0;strokeColor=#E07A5F;fillColor=#F2CC8F;fontColor=#393C56;" vertex="1" parent="1">
                    <mxGeometry x="315" y="603" width="203" height="104" as="geometry"/>
                </mxCell>
                <mxCell id="123" value="id" style="text;strokeColor=none;fillColor=none;align=left;verticalAlign=top;spacingLeft=4;spacingRight=4;overflow=hidden;rotatable=0;points=[[0,0.5],[1,0.5]];portConstraint=eastwest;labelBackgroundColor=none;labelBorderColor=none;fontColor=#393C56;fontStyle=4" vertex="1" parent="122">
                    <mxGeometry y="26" width="203" height="26" as="geometry"/>
                </mxCell>
                <mxCell id="124" value="#id_commande" style="text;strokeColor=none;fillColor=none;align=left;verticalAlign=top;spacingLeft=4;spacingRight=4;overflow=hidden;rotatable=0;points=[[0,0.5],[1,0.5]];portConstraint=eastwest;fontColor=#393C56;" vertex="1" parent="122">
                    <mxGeometry y="52" width="203" height="26" as="geometry"/>
                </mxCell>
                <mxCell id="125" value="#id_menu" style="text;strokeColor=none;fillColor=none;align=left;verticalAlign=top;spacingLeft=4;spacingRight=4;overflow=hidden;rotatable=0;points=[[0,0.5],[1,0.5]];portConstraint=eastwest;fontColor=#393C56;" vertex="1" parent="122">
                    <mxGeometry y="78" width="203" height="26" as="geometry"/>
                </mxCell>
                <mxCell id="135" style="edgeStyle=orthogonalEdgeStyle;curved=0;rounded=1;sketch=0;orthogonalLoop=1;jettySize=auto;html=1;exitX=0.5;exitY=1;exitDx=0;exitDy=0;fontColor=#393C56;strokeColor=#E07A5F;fillColor=#F2CC8F;labelBackgroundColor=#F4F1DE;" edge="1" parent="1" source="111" target="111">
                    <mxGeometry relative="1" as="geometry"/>
                </mxCell>
                <mxCell id="137" value="Table_restaurant_menus" style="swimlane;fontStyle=1;childLayout=stackLayout;horizontal=1;startSize=26;horizontalStack=0;resizeParent=1;resizeParentMax=0;resizeLast=0;collapsible=1;marginBottom=0;rounded=0;labelBackgroundColor=none;sketch=0;fontColor=#393C56;strokeColor=#E07A5F;fillColor=#F2CC8F;" vertex="1" parent="1">
                    <mxGeometry x="290" y="429" width="152" height="104" as="geometry"/>
                </mxCell>
                <mxCell id="138" value="id" style="text;strokeColor=none;fillColor=none;align=left;verticalAlign=top;spacingLeft=4;spacingRight=4;overflow=hidden;rotatable=0;points=[[0,0.5],[1,0.5]];portConstraint=eastwest;fontColor=#393C56;fontStyle=4" vertex="1" parent="137">
                    <mxGeometry y="26" width="152" height="26" as="geometry"/>
                </mxCell>
                <mxCell id="139" value="# id_menu" style="text;strokeColor=none;fillColor=none;align=left;verticalAlign=top;spacingLeft=4;spacingRight=4;overflow=hidden;rotatable=0;points=[[0,0.5],[1,0.5]];portConstraint=eastwest;fontColor=#393C56;" vertex="1" parent="137">
                    <mxGeometry y="52" width="152" height="26" as="geometry"/>
                </mxCell>
                <mxCell id="140" value="# id_restaurant" style="text;strokeColor=none;fillColor=none;align=left;verticalAlign=top;spacingLeft=4;spacingRight=4;overflow=hidden;rotatable=0;points=[[0,0.5],[1,0.5]];portConstraint=eastwest;fontColor=#393C56;" vertex="1" parent="137">
                    <mxGeometry y="78" width="152" height="26" as="geometry"/>
                </mxCell>
                <mxCell id="141" value="Restaurant" style="swimlane;fontStyle=1;childLayout=stackLayout;horizontal=1;startSize=26;horizontalStack=0;resizeParent=1;resizeParentMax=0;resizeLast=0;collapsible=1;marginBottom=0;rounded=0;labelBackgroundColor=none;sketch=0;strokeColor=#E07A5F;fillColor=#F2CC8F;fontColor=#393C56;" vertex="1" parent="1">
                    <mxGeometry x="120" y="357" width="140" height="52" as="geometry"/>
                </mxCell>
                <mxCell id="142" value="id_restaurant" style="text;strokeColor=none;fillColor=none;align=left;verticalAlign=top;spacingLeft=4;spacingRight=4;overflow=hidden;rotatable=0;points=[[0,0.5],[1,0.5]];portConstraint=eastwest;fontColor=#393C56;fontStyle=4" vertex="1" parent="141">
                    <mxGeometry y="26" width="140" height="26" as="geometry"/>
                </mxCell>
                <mxCell id="146" value="1..*" style="text;html=1;strokeColor=none;fillColor=none;align=center;verticalAlign=middle;whiteSpace=wrap;rounded=0;labelBackgroundColor=none;sketch=0;fontColor=#393C56;" vertex="1" parent="1">
                    <mxGeometry x="200" y="498" width="40" height="20" as="geometry"/>
                </mxCell>
                <mxCell id="151" value="" style="endArrow=none;html=1;fontColor=#393C56;strokeColor=#E07A5F;fillColor=#F2CC8F;exitX=0.586;exitY=0.003;exitDx=0;exitDy=0;entryX=0.578;entryY=1.039;entryDx=0;entryDy=0;entryPerimeter=0;exitPerimeter=0;labelBackgroundColor=#F4F1DE;" edge="1" parent="1" source="27" target="9">
                    <mxGeometry width="50" height="50" relative="1" as="geometry">
                        <mxPoint x="572" y="465" as="sourcePoint"/>
                        <mxPoint x="622" y="415" as="targetPoint"/>
                        <Array as="points"/>
                    </mxGeometry>
                </mxCell>
                <mxCell id="152" style="edgeStyle=orthogonalEdgeStyle;curved=0;rounded=1;sketch=0;orthogonalLoop=1;jettySize=auto;html=1;exitX=0.5;exitY=1;exitDx=0;exitDy=0;fontColor=#393C56;strokeColor=#E07A5F;fillColor=#F2CC8F;labelBackgroundColor=#F4F1DE;" edge="1" parent="1" source="146" target="146">
                    <mxGeometry relative="1" as="geometry"/>
                </mxCell>
                <mxCell id="153" value="" style="endArrow=none;html=1;fontColor=#393C56;strokeColor=#E07A5F;fillColor=#F2CC8F;exitX=0;exitY=1;exitDx=0;exitDy=0;labelBackgroundColor=#F4F1DE;" edge="1" parent="1" source="146">
                    <mxGeometry width="50" height="50" relative="1" as="geometry">
                        <mxPoint x="150" y="459" as="sourcePoint"/>
                        <mxPoint x="200" y="409" as="targetPoint"/>
                    </mxGeometry>
                </mxCell>
                <mxCell id="155" value="" style="endArrow=none;dashed=1;html=1;fontColor=#393C56;strokeColor=#E07A5F;fillColor=#F2CC8F;entryX=-0.003;entryY=0.935;entryDx=0;entryDy=0;entryPerimeter=0;labelBackgroundColor=#F4F1DE;" edge="1" parent="1" target="138">
                    <mxGeometry width="50" height="50" relative="1" as="geometry">
                        <mxPoint x="200" y="479" as="sourcePoint"/>
                        <mxPoint x="240" y="450" as="targetPoint"/>
                        <Array as="points"/>
                    </mxGeometry>
                </mxCell>
                <mxCell id="158" value="" style="endArrow=none;dashed=1;html=1;fontColor=#393C56;strokeColor=#E07A5F;fillColor=#F2CC8F;exitX=0.413;exitY=0.01;exitDx=0;exitDy=0;exitPerimeter=0;labelBackgroundColor=#F4F1DE;" edge="1" parent="1" source="122">
                    <mxGeometry width="50" height="50" relative="1" as="geometry">
                        <mxPoint x="350" y="610" as="sourcePoint"/>
                        <mxPoint x="400" y="560" as="targetPoint"/>
                    </mxGeometry>
                </mxCell>
                <mxCell id="160" value="Table_client_commande" style="swimlane;fontStyle=0;childLayout=stackLayout;horizontal=1;startSize=26;horizontalStack=0;resizeParent=1;resizeParentMax=0;resizeLast=0;collapsible=1;marginBottom=0;rounded=0;labelBackgroundColor=none;sketch=0;fontColor=#393C56;strokeColor=#E07A5F;fillColor=#F2CC8F;" vertex="1" parent="1">
                    <mxGeometry x="760" y="357" width="140" height="104" as="geometry"/>
                </mxCell>
                <mxCell id="161" value="id" style="text;strokeColor=none;fillColor=none;align=left;verticalAlign=top;spacingLeft=4;spacingRight=4;overflow=hidden;rotatable=0;points=[[0,0.5],[1,0.5]];portConstraint=eastwest;fontColor=#393C56;" vertex="1" parent="160">
                    <mxGeometry y="26" width="140" height="26" as="geometry"/>
                </mxCell>
                <mxCell id="162" value="id_commande" style="text;strokeColor=none;fillColor=none;align=left;verticalAlign=top;spacingLeft=4;spacingRight=4;overflow=hidden;rotatable=0;points=[[0,0.5],[1,0.5]];portConstraint=eastwest;fontColor=#393C56;" vertex="1" parent="160">
                    <mxGeometry y="52" width="140" height="26" as="geometry"/>
                </mxCell>
                <mxCell id="163" value="# id_client" style="text;strokeColor=none;fillColor=none;align=left;verticalAlign=top;spacingLeft=4;spacingRight=4;overflow=hidden;rotatable=0;points=[[0,0.5],[1,0.5]];portConstraint=eastwest;fontColor=#393C56;" vertex="1" parent="160">
                    <mxGeometry y="78" width="140" height="26" as="geometry"/>
                </mxCell>
                <mxCell id="164" value="" style="endArrow=none;dashed=1;html=1;fontColor=#393C56;strokeColor=#E07A5F;fillColor=#F2CC8F;labelBackgroundColor=#F4F1DE;" edge="1" parent="1">
                    <mxGeometry width="50" height="50" relative="1" as="geometry">
                        <mxPoint x="640" y="400" as="sourcePoint"/>
                        <mxPoint x="760" y="400" as="targetPoint"/>
                    </mxGeometry>
                </mxCell>
                <mxCell id="178" value="0..1" style="text;html=1;strokeColor=none;fillColor=none;align=center;verticalAlign=middle;whiteSpace=wrap;rounded=0;labelBackgroundColor=none;sketch=0;fontColor=#393C56;" vertex="1" parent="1">
                    <mxGeometry x="200" y="337" width="40" height="20" as="geometry"/>
                </mxCell>
                <mxCell id="185" value="" style="endArrow=none;dashed=1;html=1;fontColor=#393C56;strokeColor=#E07A5F;fillColor=#F2CC8F;exitX=1;exitY=-0.297;exitDx=0;exitDy=0;exitPerimeter=0;labelBackgroundColor=#F4F1DE;" edge="1" parent="1" source="190">
                    <mxGeometry width="50" height="50" relative="1" as="geometry">
                        <mxPoint x="120" y="657" as="sourcePoint"/>
                        <mxPoint x="180" y="657" as="targetPoint"/>
                    </mxGeometry>
                </mxCell>
                <mxCell id="188" value="Table_menu_article" style="swimlane;fontStyle=1;childLayout=stackLayout;horizontal=1;startSize=26;horizontalStack=0;resizeParent=1;resizeParentMax=0;resizeLast=0;collapsible=1;marginBottom=0;rounded=0;sketch=0;strokeColor=#E07A5F;fillColor=#F2CC8F;fontColor=#393C56;" vertex="1" parent="1">
                    <mxGeometry x="-130" y="613" width="203" height="104" as="geometry"/>
                </mxCell>
                <mxCell id="189" value="id" style="text;strokeColor=none;fillColor=none;align=left;verticalAlign=top;spacingLeft=4;spacingRight=4;overflow=hidden;rotatable=0;points=[[0,0.5],[1,0.5]];portConstraint=eastwest;labelBackgroundColor=none;labelBorderColor=none;fontColor=#393C56;fontStyle=4" vertex="1" parent="188">
                    <mxGeometry y="26" width="203" height="26" as="geometry"/>
                </mxCell>
                <mxCell id="190" value="#id_menu" style="text;strokeColor=none;fillColor=none;align=left;verticalAlign=top;spacingLeft=4;spacingRight=4;overflow=hidden;rotatable=0;points=[[0,0.5],[1,0.5]];portConstraint=eastwest;fontColor=#393C56;" vertex="1" parent="188">
                    <mxGeometry y="52" width="203" height="26" as="geometry"/>
                </mxCell>
                <mxCell id="191" value="#id_article" style="text;strokeColor=none;fillColor=none;align=left;verticalAlign=top;spacingLeft=4;spacingRight=4;overflow=hidden;rotatable=0;points=[[0,0.5],[1,0.5]];portConstraint=eastwest;fontColor=#393C56;" vertex="1" parent="188">
                    <mxGeometry y="78" width="203" height="26" as="geometry"/>
                </mxCell>
            </root>
        </mxGraphModel>
    </diagram>
</mxfile>